# xmcd
#
# Track frame offsets:
#	150
#	15240
#	29004
#	43610
#	54363
#	68438
#	82662
#	95096
#	107263
#	121076
#	130659
#	145585
#	160712
#	176106
#	187382
#	200586
#	212240
#	222859
#	235884
#	246378
#
# Disc length: 3472 seconds
#
# Revision: 0
# Processed by: cddbd v1.5.2PL0 Copyright (c) Steve Scherf et al.
# Submitted via: audiograbber 1.83.01
#
DISCID=100d8e14
DTITLE=George Jones - The Legendary CD1
DYEAR=1998
DGENRE=Country
TTITLE0=He Stopped Loving Her Today
TTITLE1=I'm Not Ready Yet
TTITLE2=If Drinkin' Don't Kill Me (Her Memory Will)
TTITLE3=Her Name Is...
TTITLE4=Loving You Could Never Be Better
TTITLE5=The Grand Tour
TTITLE6=The Door
TTITLE7=Once You've Had The Best
TTITLE8=These Days (I Barely Get By)
TTITLE9=We Can Make It
TTITLE10=Who's Gonna Fill Their Shoes
TTITLE11=I Always Get Lucky With You
TTITLE12=Shine On (Shine All Your Sweet Love On Me)
TTITLE13=She's My Rock
TTITLE14=Tennessee Whiskey
TTITLE15=A Picture Of Me (Without You)
TTITLE16=Nothing Ever Hurt Me (Half As Bad As Losing You)
TTITLE17=Still Doin' Time
TTITLE18=I'm A One Woman Man
TTITLE19=You've Still Got A Place In My Heart
EXTD=
EXTT0=
EXTT1=
EXTT2=
EXTT3=
EXTT4=
EXTT5=
EXTT6=
EXTT7=
EXTT8=
EXTT9=
EXTT10=
EXTT11=
EXTT12=
EXTT13=
EXTT14=
EXTT15=
EXTT16=
EXTT17=
EXTT18=
EXTT19=
PLAYORDER=
